<svg width="40" height="40" viewBox="0 0 40 40" fill="none" xmlns="http://www.w3.org/2000/svg">
<circle cx="20" cy="20" r="19.5" stroke="#1A1A1A"/>
<path fill-rule="evenodd" clip-rule="evenodd" d="M11.75 20C11.75 19.5858 12.0858 19.25 12.5 19.25L25.6893 19.25L20.2197 13.7803C19.9268 13.4874 19.9268 13.0126 20.2197 12.7197C20.5126 12.4268 20.9874 12.4268 21.2803 12.7197L28.0303 19.4697C28.3232 19.7626 28.3232 20.2374 28.0303 20.5303L21.2803 27.2803C20.9874 27.5732 20.5126 27.5732 20.2197 27.2803C19.9268 26.9874 19.9268 26.5126 20.2197 26.2197L25.6893 20.75L12.5 20.75C12.0858 20.75 11.75 20.4142 11.75 20Z" fill="#0F172A"/>
</svg>
