<svg width="40" height="40" viewBox="0 0 40 40" fill="none" xmlns="http://www.w3.org/2000/svg">
<circle cx="20" cy="20" r="19.5" stroke="#1A1A1A"/>
<path fill-rule="evenodd" clip-rule="evenodd" d="M28.25 20C28.25 20.4142 27.9142 20.75 27.5 20.75L14.3107 20.75L19.7803 26.2197C20.0732 26.5126 20.0732 26.9874 19.7803 27.2803C19.4874 27.5732 19.0126 27.5732 18.7197 27.2803L11.9697 20.5303C11.6768 20.2374 11.6768 19.7626 11.9697 19.4697L18.7197 12.7197C19.0126 12.4268 19.4874 12.4268 19.7803 12.7197C20.0732 13.0126 20.0732 13.4874 19.7803 13.7803L14.3107 19.25L27.5 19.25C27.9142 19.25 28.25 19.5858 28.25 20Z" fill="#1A1A1A"/>
</svg>
