<svg width="75" height="19" viewBox="0 0 75 19" fill="none" xmlns="http://www.w3.org/2000/svg">
<path d="M0 18.6851V0.314916H4.14813V15.221H13.1357V18.6851H0Z" fill="black"/>
<path d="M23.8593 19C22.4425 19 21.1281 18.7638 19.9161 18.2914C18.7211 17.8191 17.6798 17.1542 16.7922 16.297C15.9216 15.4397 15.2387 14.4337 14.7437 13.279C14.2657 12.1243 14.0267 10.8646 14.0267 9.5C14.0267 8.13536 14.2657 6.87569 14.7437 5.72099C15.2387 4.5663 15.9301 3.56031 16.8178 2.70304C17.7054 1.84576 18.7467 1.18094 19.9417 0.708562C21.1366 0.236187 22.434 0 23.8337 0C25.2506 0 26.5479 0.236187 27.7258 0.708562C28.9207 1.18094 29.9535 1.84576 30.8241 2.70304C31.7118 3.56031 32.4031 4.5663 32.8982 5.72099C33.3932 6.85819 33.6407 8.11786 33.6407 9.5C33.6407 10.8646 33.3932 12.1331 32.8982 13.3052C32.4031 14.4599 31.7118 15.4659 30.8241 16.3232C29.9535 17.163 28.9207 17.8191 27.7258 18.2914C26.5479 18.7638 25.2591 19 23.8593 19ZM23.8337 15.3785C24.6361 15.3785 25.3701 15.2385 26.0358 14.9586C26.7187 14.6786 27.3161 14.2762 27.8282 13.7514C28.3403 13.2265 28.733 12.6054 29.0061 11.8881C29.2963 11.1708 29.4414 10.3748 29.4414 9.5C29.4414 8.62523 29.2963 7.82919 29.0061 7.11188C28.733 6.39457 28.3403 5.77348 27.8282 5.24862C27.3332 4.72376 26.7443 4.32136 26.0614 4.04144C25.3786 3.76151 24.6361 3.62155 23.8337 3.62155C23.0314 3.62155 22.2889 3.76151 21.606 4.04144C20.9403 4.32136 20.3514 4.72376 19.8392 5.24862C19.3271 5.77348 18.926 6.39457 18.6358 7.11188C18.3626 7.82919 18.2261 8.62523 18.2261 9.5C18.2261 10.3573 18.3626 11.1533 18.6358 11.8881C18.926 12.6054 19.3186 13.2265 19.8136 13.7514C20.3258 14.2762 20.9232 14.6786 21.606 14.9586C22.2889 15.2385 23.0314 15.3785 23.8337 15.3785Z" fill="black"/>
<path d="M45.413 19C43.9961 19 42.6902 18.7726 41.4953 18.3177C40.3174 17.8453 39.2847 17.1805 38.397 16.3232C37.5264 15.4659 36.8436 14.4599 36.3485 13.3052C35.8706 12.1506 35.6316 10.8821 35.6316 9.5C35.6316 8.11786 35.8706 6.84945 36.3485 5.69475C36.8436 4.54005 37.5349 3.53407 38.4226 2.6768C39.3103 1.81952 40.3516 1.16344 41.5465 0.708562C42.7414 0.236187 44.0559 0 45.4898 0C47.0773 0 48.5027 0.271178 49.7659 0.813535C51.0462 1.35589 52.1217 2.14319 52.9923 3.17541L50.3293 5.69475C49.6806 4.99494 48.9722 4.47882 48.204 4.14641C47.4358 3.7965 46.5994 3.62155 45.6946 3.62155C44.824 3.62155 44.0303 3.76151 43.3133 4.04144C42.5963 4.32136 41.9733 4.72376 41.4441 5.24862C40.932 5.77348 40.5308 6.39457 40.2406 7.11188C39.9675 7.82919 39.8309 8.62523 39.8309 9.5C39.8309 10.3573 39.9675 11.1446 40.2406 11.8619C40.5308 12.5792 40.932 13.209 41.4441 13.7514C41.9733 14.2762 42.5878 14.6786 43.2877 14.9586C44.0047 15.2385 44.7899 15.3785 45.6434 15.3785C46.4628 15.3785 47.2566 15.2472 48.0248 14.9848C48.81 14.7049 49.5696 14.2413 50.3037 13.5939L52.6594 16.6644C51.6864 17.4167 50.5512 17.994 49.2538 18.3964C47.9735 18.7988 46.6933 19 45.413 19ZM48.8697 16.1133V9.21133H52.6594V16.6644L48.8697 16.1133Z" fill="black"/>
<path d="M65.2186 19C63.8018 19 62.4873 18.7638 61.2753 18.2914C60.0804 17.8191 59.0391 17.1542 58.1514 16.297C57.2808 15.4397 56.598 14.4337 56.103 13.279C55.625 12.1243 55.386 10.8646 55.386 9.5C55.386 8.13536 55.625 6.87569 56.103 5.72099C56.598 4.5663 57.2894 3.56031 58.177 2.70304C59.0647 1.84576 60.106 1.18094 61.3009 0.708562C62.4959 0.236187 63.7932 0 65.193 0C66.6099 0 67.9072 0.236187 69.0851 0.708562C70.28 1.18094 71.3128 1.84576 72.1834 2.70304C73.071 3.56031 73.7624 4.5663 74.2574 5.72099C74.7525 6.85819 75 8.11786 75 9.5C75 10.8646 74.7525 12.1331 74.2574 13.3052C73.7624 14.4599 73.071 15.4659 72.1834 16.3232C71.3128 17.163 70.28 17.8191 69.0851 18.2914C67.9072 18.7638 66.6184 19 65.2186 19ZM65.193 15.3785C65.9953 15.3785 66.7293 15.2385 67.3951 14.9586C68.0779 14.6786 68.6754 14.2762 69.1875 13.7514C69.6996 13.2265 70.0922 12.6054 70.3654 11.8881C70.6556 11.1708 70.8007 10.3748 70.8007 9.5C70.8007 8.62523 70.6556 7.82919 70.3654 7.11188C70.0922 6.39457 69.6996 5.77348 69.1875 5.24862C68.6925 4.72376 68.1035 4.32136 67.4207 4.04144C66.7379 3.76151 65.9953 3.62155 65.193 3.62155C64.3907 3.62155 63.6481 3.76151 62.9653 4.04144C62.2996 4.32136 61.7106 4.72376 61.1985 5.24862C60.6864 5.77348 60.2852 6.39457 59.995 7.11188C59.7219 7.82919 59.5853 8.62523 59.5853 9.5C59.5853 10.3573 59.7219 11.1533 59.995 11.8881C60.2852 12.6054 60.6779 13.2265 61.1729 13.7514C61.685 14.2762 62.2825 14.6786 62.9653 14.9586C63.6481 15.2385 64.3907 15.3785 65.193 15.3785Z" fill="black"/>
</svg>
