<svg width="89" height="106" viewBox="0 0 89 106" fill="none" xmlns="http://www.w3.org/2000/svg">
<line x1="43.5" y1="81" x2="43.5" y2="106" stroke="#FDD835"/>
<g opacity="0.85">
<path d="M46.4049 34.1434H41.7382V35.3339H46.4049V34.1434Z" fill="#333333"/>
<path d="M39.4049 29.3811H34.7382V30.5717H39.4049V29.3811Z" fill="#333333"/>
<path d="M53.4049 29.3811H48.7382V30.5717H53.4049V29.3811Z" fill="#333333"/>
<path d="M53.4048 31.7622H49.9048V32.9528H53.4048V31.7622Z" fill="#333333"/>
<path d="M53.4048 34.1434H49.9048V35.3339H53.4048V34.1434Z" fill="#333333"/>
<path d="M38.2382 31.7622H34.7382V32.9528H38.2382V31.7622Z" fill="#333333"/>
<path d="M38.2382 34.1434H34.7382V35.3339H38.2382V34.1434Z" fill="#333333"/>
<path d="M48.7382 50.8111H39.4048V31.7622H48.7382V50.8111ZM40.5715 49.6206H47.5715V32.9528H40.5715V49.6206Z" fill="#333333"/>
<path d="M46.4049 36.5244H41.7382V37.715H46.4049V36.5244Z" fill="#333333"/>
<path d="M46.4049 38.9055H41.7382V40.0961H46.4049V38.9055Z" fill="#333333"/>
<path d="M44.0715 48.43C44.7158 48.43 45.2382 47.897 45.2382 47.2394C45.2382 46.5819 44.7158 46.0489 44.0715 46.0489C43.4272 46.0489 42.9048 46.5819 42.9048 47.2394C42.9048 47.897 43.4272 48.43 44.0715 48.43Z" fill="#333333"/>
<path d="M37.0715 43.6677C37.7158 43.6677 38.2382 43.1347 38.2382 42.4772C38.2382 41.8197 37.7158 41.2866 37.0715 41.2866C36.4272 41.2866 35.9048 41.8197 35.9048 42.4772C35.9048 43.1347 36.4272 43.6677 37.0715 43.6677Z" fill="#333333"/>
<path d="M51.0715 43.6677C51.7158 43.6677 52.2382 43.1347 52.2382 42.4772C52.2382 41.8197 51.7158 41.2866 51.0715 41.2866C50.4272 41.2866 49.9048 41.8197 49.9048 42.4772C49.9048 43.1347 50.4272 43.6677 51.0715 43.6677Z" fill="#333333"/>
<path d="M46.4048 27V30.5717H47.5715V28.1906H54.5715V44.8583H49.9048V46.0489H55.7382V27H46.4048Z" fill="#333333"/>
<path d="M38.2382 44.8583H33.5715V28.1906H40.5715V30.5717H41.7382V27H32.4048V46.0489H38.2382V44.8583Z" fill="#333333"/>
<path d="M49.9049 58.5497C49.9049 57.5377 49.1465 56.7639 48.1549 56.7639H44.6549V52.0016H43.4882V56.7639H39.9882C38.9965 56.7639 38.2382 57.5377 38.2382 58.5497H26.5715V59.7403H38.2382C38.2382 60.7522 38.9965 61.5261 39.9882 61.5261H48.1549C49.1465 61.5261 49.9049 60.7522 49.9049 59.7403H61.5715V58.5497H49.9049ZM48.7382 59.7403C48.7382 60.0974 48.5049 60.3355 48.1549 60.3355H39.9882C39.6382 60.3355 39.4049 60.0974 39.4049 59.7403V58.5497C39.4049 58.1925 39.6382 57.9544 39.9882 57.9544H48.1549C48.5049 57.9544 48.7382 58.1925 48.7382 58.5497V59.7403Z" fill="#333333"/>
</g>
<path fill-rule="evenodd" clip-rule="evenodd" d="M55.1276 13.845C38.4163 7.94972 20.0106 16.5459 13.8426 33.2242C7.61666 50.0591 16.2169 68.7536 33.0518 74.9795C49.7301 81.1475 68.2336 72.7638 74.6302 56.2379L76.5062 56.9317C69.7263 74.4936 50.0724 83.4065 32.3581 76.8553C14.4872 70.2462 5.3577 50.4013 11.9668 32.5304C18.5179 14.8161 38.074 5.6907 55.8214 11.969L55.1276 13.845Z" fill="#FDD835"/>
<circle cx="43.5" cy="78.5" r="4.5" transform="rotate(180 43.5 78.5)" fill="white" stroke="#FDD835" stroke-width="2"/>
<circle cx="76" cy="55" r="4" transform="rotate(180 76 55)" fill="#FDD835"/>
</svg>
