<svg width="69" height="99" viewBox="0 0 69 99" fill="none" xmlns="http://www.w3.org/2000/svg">
<path opacity="0.85" fill-rule="evenodd" clip-rule="evenodd" d="M45.3429 29.4629L44.6143 30.1616C46.7143 32.607 48 35.7948 48 39.2445C48 46.8428 41.9571 53 34.5 53C27.0429 53 21 46.8428 21 39.2445C21 31.952 26.5714 25.9694 33.6429 25.5328V24.7467H32.2714V23H36.7286V24.7467H35.3571V25.5328C38.4429 25.7511 41.2286 26.9738 43.4143 28.9389L44.1429 28.2402L45.3429 29.4629ZM22.7143 39.2882C22.7143 45.9258 27.9857 51.2969 34.5 51.2969C41.0143 51.2969 46.2857 45.9258 46.2857 39.2882C46.2857 32.6507 41.0143 27.2795 34.5 27.2795C27.9857 27.2795 22.7143 32.6507 22.7143 39.2882ZM34.8428 37.6726L39.8571 32.5634L41.0571 33.8298L36.0857 38.8953C36.0857 38.9608 36.0964 39.0263 36.1071 39.0918C36.1178 39.1573 36.1285 39.2228 36.1285 39.2883C36.1285 40.2053 35.4 40.9477 34.5 40.9477C33.6 40.9477 32.8714 40.2053 32.8714 39.2883C32.8714 38.3713 33.6 37.6289 34.5 37.6289C34.6285 37.6289 34.7143 37.6289 34.8428 37.6726Z" fill="#333333"/>
<line x1="34.5" y1="77" x2="34.5" y2="99" stroke="#FDD835"/>
<path fill-rule="evenodd" clip-rule="evenodd" d="M2.00023 37.9965C2.26745 55.7152 16.7142 69.9965 34.4965 69.9965C52.4457 69.9965 66.9965 55.4457 66.9965 37.4965C66.9965 19.7142 52.7152 5.26746 34.9965 5.00023L34.9965 3.00001C53.8198 3.26741 68.9965 18.6096 68.9965 37.4965C68.9965 56.5503 53.5503 71.9965 34.4965 71.9965C15.6096 71.9965 0.267409 56.8198 4.65702e-06 37.9965L2.00023 37.9965Z" fill="#FDD835"/>
<circle cx="33" cy="4" r="4" transform="rotate(180 33 4)" fill="#FDD835"/>
<circle cx="34.5" cy="71.5" r="4.5" transform="rotate(180 34.5 71.5)" fill="white" stroke="#FDD835" stroke-width="2"/>
</svg>
