<svg width="79" height="101" viewBox="0 0 79 101" fill="none" xmlns="http://www.w3.org/2000/svg">
<g opacity="0.85">
<path d="M45.614 23.4667C45.573 23.2 45.3406 23 45.0671 23H32.3235C32.05 23 31.8107 23.2 31.7766 23.4667L31.0997 27.9669H46.284L45.614 23.4667Z" fill="#333333"/>
<path d="M47.5215 29.787L47.0703 29.327V50.6278L47.5215 50.1678C47.8292 49.8544 48.0001 49.4411 48.0001 49.0077V30.947C48.0001 30.5136 47.8292 30.1003 47.5215 29.787Z" fill="#333333"/>
<path d="M31 50.7731C31 53.1076 32.9407 55 35.3345 55H42.053C44.4469 55 46.3876 53.1075 46.3876 50.7731V28.6318H31V50.7731ZM35.8541 52.9347C35.8541 53.026 35.7792 53.0992 35.6854 53.0992H33.0614C32.9677 53.0992 32.8927 53.026 32.8927 52.9347V51.637C32.8927 51.5455 32.9677 51.4725 33.0614 51.4725H35.6854C35.7792 51.4725 35.8541 51.5455 35.8541 51.637V52.9347ZM35.8541 50.6824C35.8541 50.7738 35.7792 50.8469 35.6854 50.8469H33.0614C32.9677 50.8469 32.8927 50.7738 32.8927 50.6824V49.3847C32.8927 49.2933 32.9677 49.2202 33.0614 49.2202H35.6854C35.7792 49.2202 35.8541 49.2933 35.8541 49.3847V50.6824ZM35.8541 48.4301C35.8541 48.5215 35.7792 48.5946 35.6854 48.5946H33.0614C32.9677 48.5946 32.8927 48.5215 32.8927 48.4301V47.1324C32.8927 47.041 32.9677 46.9679 33.0614 46.9679H35.6854C35.7792 46.9679 35.8541 47.041 35.8541 47.1324V48.4301ZM35.8541 46.1778C35.8541 46.2692 35.7792 46.3423 35.6854 46.3423H33.0614C32.9677 46.3423 32.8927 46.2692 32.8927 46.1778V44.8801C32.8927 44.7887 32.9677 44.7156 33.0614 44.7156H35.6854C35.7792 44.7156 35.8541 44.7887 35.8541 44.8801V46.1778ZM32.8927 43.6328V42.6079C32.8927 42.5357 32.952 42.478 33.026 42.478H35.0983C35.1723 42.478 35.2315 42.5357 35.2315 42.6079V43.6328C35.2315 43.7049 35.1723 43.7627 35.0983 43.7627H33.026C32.952 43.7627 32.8927 43.7049 32.8927 43.6328ZM35.9805 43.6328V42.6079C35.9805 42.5357 36.0397 42.478 36.1137 42.478H38.186C38.26 42.478 38.3192 42.5357 38.3192 42.6079V43.6328C38.3192 43.7049 38.2601 43.7627 38.186 43.7627H36.1138C36.0398 43.7627 35.9805 43.7049 35.9805 43.6328ZM40.1744 52.9347C40.1744 53.026 40.0995 53.0992 40.0057 53.0992H37.3818C37.2881 53.0992 37.2131 53.026 37.2131 52.9347V51.637C37.2131 51.5455 37.2881 51.4725 37.3818 51.4725H40.0057C40.0995 51.4725 40.1744 51.5455 40.1744 51.637V52.9347ZM40.1744 50.6824C40.1744 50.7738 40.0995 50.8469 40.0057 50.8469H37.3818C37.2881 50.8469 37.2131 50.7738 37.2131 50.6824V49.3847C37.2131 49.2933 37.2881 49.2202 37.3818 49.2202H40.0057C40.0995 49.2202 40.1744 49.2933 40.1744 49.3847V50.6824ZM40.1744 48.4301C40.1744 48.5215 40.0995 48.5946 40.0057 48.5946H37.3818C37.2881 48.5946 37.2131 48.5215 37.2131 48.4301V47.1324C37.2131 47.041 37.2881 46.9679 37.3818 46.9679H40.0057C40.0995 46.9679 40.1744 47.041 40.1744 47.1324V48.4301ZM40.1744 46.1778C40.1744 46.2692 40.0995 46.3423 40.0057 46.3423H37.3818C37.2881 46.3423 37.2131 46.2692 37.2131 46.1778V44.8801C37.2131 44.7887 37.2881 44.7156 37.3818 44.7156H40.0057C40.0995 44.7156 40.1744 44.7887 40.1744 44.8801V46.1778ZM41.407 43.6328C41.407 43.7049 41.3479 43.7627 41.2738 43.7627H39.2015C39.1275 43.7627 39.0683 43.7049 39.0683 43.6328V42.6079C39.0683 42.5357 39.1275 42.478 39.2015 42.478H41.2738C41.3478 42.478 41.407 42.5357 41.407 42.6079V43.6328ZM44.4948 52.9347C44.4948 53.026 44.4199 53.0992 44.3261 53.0992H41.7022C41.6085 53.0992 41.5334 53.026 41.5334 52.9347V51.637C41.5334 51.5455 41.6085 51.4725 41.7022 51.4725H44.3261C44.4199 51.4725 44.4948 51.5455 44.4948 51.637V52.9347ZM44.4948 50.6824C44.4948 50.7738 44.4199 50.8469 44.3261 50.8469H41.7022C41.6085 50.8469 41.5334 50.7738 41.5334 50.6824V49.3847C41.5334 49.2933 41.6085 49.2202 41.7022 49.2202H44.3261C44.4199 49.2202 44.4948 49.2933 44.4948 49.3847V50.6824ZM44.4948 48.4301C44.4948 48.5215 44.4199 48.5946 44.3261 48.5946H41.7022C41.6085 48.5946 41.5334 48.5215 41.5334 48.4301V47.1324C41.5334 47.041 41.6085 46.9679 41.7022 46.9679H44.3261C44.4199 46.9679 44.4948 47.041 44.4948 47.1324V48.4301ZM44.4948 46.1778C44.4948 46.2692 44.4199 46.3423 44.3261 46.3423H41.7022C41.6085 46.3423 41.5334 46.2692 41.5334 46.1778V44.8801C41.5334 44.7887 41.6085 44.7156 41.7022 44.7156H44.3261C44.4199 44.7156 44.4948 44.7887 44.4948 44.8801V46.1778ZM44.4948 43.6328C44.4948 43.7049 44.4357 43.7627 44.3616 43.7627H42.2893C42.2153 43.7627 42.1561 43.7049 42.1561 43.6328V42.6079C42.1561 42.5357 42.2153 42.478 42.2893 42.478H44.3616C44.4357 42.478 44.4948 42.5357 44.4948 42.6079V43.6328ZM32.5696 30.6542C32.5696 30.364 32.8187 30.1211 33.1164 30.1211H44.1488C44.4465 30.1211 44.6955 30.364 44.6955 30.6542V40.0324C44.6955 40.2931 44.4951 40.53 44.2278 40.5596C40.6131 41.0751 36.8769 41.0514 33.0496 40.5538C32.7762 40.5182 32.5696 40.2931 32.5696 40.0324V30.6542Z" fill="#333333"/>
</g>
<line x1="39.5" y1="76" x2="39.5" y2="101" stroke="#FDD835"/>
<circle cx="39.5" cy="73.5" r="4.5" transform="rotate(180 39.5 73.5)" fill="white" stroke="#FDD835" stroke-width="2"/>
<path fill-rule="evenodd" clip-rule="evenodd" d="M71.5412 43.581C73.7716 26.0012 61.4798 9.82796 43.8747 7.32406C26.1042 4.79665 9.64958 17.1536 7.12217 34.924C4.61827 52.5291 16.7231 68.8428 34.2276 71.6023L33.946 73.5826C15.3478 70.6674 2.48266 53.3411 5.1421 34.6424C7.82504 15.7784 25.2923 2.66104 44.1563 5.34398C62.855 8.00342 75.9073 25.1892 73.5215 43.8626L71.5412 43.581Z" fill="#FDD835"/>
<circle cx="72" cy="46" r="4" transform="rotate(180 72 46)" fill="#FDD835"/>
</svg>
