<svg width="13" height="18" viewBox="0 0 13 18" fill="none" xmlns="http://www.w3.org/2000/svg">
<path fill-rule="evenodd" clip-rule="evenodd" d="M6.56313 0C6.2146 0 5.93206 0.283763 5.93206 0.633803L5.93206 1.77465C5.93206 2.12469 6.2146 2.40845 6.56313 2.40845C6.91166 2.40845 7.19419 2.12469 7.19419 1.77465L7.1942 0.633803C7.1942 0.283763 6.91166 0 6.56313 0ZM5.93206 4.18309C5.93206 3.83305 6.2146 3.54929 6.56313 3.54929C6.91166 3.54929 7.1942 3.83305 7.1942 4.18309L7.19419 13.5543L10.5343 10.1997C10.7808 9.95219 11.1804 9.95219 11.4268 10.1997C11.6733 10.4472 11.6733 10.8485 11.4268 11.096L7.00933 15.5327C6.76289 15.7802 6.36332 15.7802 6.11687 15.5327L1.69939 11.096C1.45295 10.8485 1.45295 10.4472 1.69939 10.1997C1.94584 9.95219 2.34541 9.95219 2.59186 10.1997L5.93206 13.5544L5.93206 4.18309ZM12.3689 16.7324C12.7175 16.7324 13 17.0162 13 17.3662C13 17.7162 12.7175 18 12.3689 18H0.631068C0.282538 18 -3.04694e-08 17.7162 0 17.3662C3.04694e-08 17.0162 0.282539 16.7324 0.631068 16.7324L12.3689 16.7324Z" fill="#333333"/>
</svg>
