<svg width="291" height="55" viewBox="0 0 291 55" fill="none" xmlns="http://www.w3.org/2000/svg">
<path d="M47.0246 23.4898C47.0246 16.2822 52.7508 10.3793 60.8983 10.3793C65.417 10.3793 68.3069 11.7328 70.7334 13.7277C71.1188 14.0453 71.1559 14.624 70.8166 14.9902L68.9574 17.0095C68.6475 17.3463 68.1277 17.3872 67.7704 17.0991C65.7921 15.5075 63.641 14.4704 60.8598 14.4704C55.7099 14.4704 51.9825 18.4538 51.9825 23.4886C51.9825 28.4503 55.7099 32.5068 60.8598 32.5068C63.8817 32.5068 65.9074 31.4466 67.9958 29.7154C68.3364 29.4324 68.8345 29.4503 69.1546 29.7564L70.9536 31.4734C71.3211 31.823 71.3134 32.4133 70.937 32.7526C68.3069 35.1291 65.335 36.6004 60.7049 36.6004C52.866 36.6004 47.0246 30.8422 47.0246 23.4898Z" fill="#FFBD00"/>
<path d="M76.0396 9.72629H80.6902V20.0121C81.9962 18.2016 83.8798 16.6446 87.031 16.6446C91.6047 16.6446 94.2552 19.5422 94.2552 23.9969V35.293C94.2552 35.7757 93.8647 36.1663 93.382 36.1663H90.4779C89.9952 36.1663 89.6046 35.7757 89.6046 35.293V25.3004C89.6046 22.331 88.0284 20.628 85.2627 20.628C82.5724 20.628 80.6889 22.4027 80.6889 25.3721V35.2917C80.6889 35.7745 80.2984 36.165 79.8156 36.165H76.9116C76.4288 36.165 76.0383 35.7745 76.0383 35.2917V9.72629H76.0396Z" fill="#FFBD00"/>
<path d="M98.7509 26.6039C98.7509 21.1351 102.862 16.6446 108.665 16.6446C115.121 16.6446 118.388 21.4258 118.388 26.9304C118.388 27.0264 118.384 27.1686 118.376 27.3261C118.356 27.7934 117.972 28.1622 117.504 28.1622H104.517C103.912 28.1622 103.492 28.7614 103.695 29.3325C104.535 31.709 106.642 33.0164 109.242 33.0164C111.254 33.0164 112.751 32.389 114.192 31.2097C114.517 30.9433 114.986 30.9421 115.308 31.2122L116.749 32.4159C117.148 32.75 117.17 33.357 116.794 33.7168C114.938 35.4876 112.476 36.6016 109.166 36.6016C103.285 36.6004 98.7509 32.5797 98.7509 26.6039ZM113.777 25.2645C113.47 22.4399 111.701 20.2298 108.627 20.2298C105.783 20.2298 103.784 22.2939 103.362 25.2645H113.777Z" fill="#FFBD00"/>
<path d="M121.962 26.641C121.962 21.2081 126.42 16.6446 132.492 16.6446C135.901 16.6446 138.159 17.6984 139.94 19.3015C140.312 19.6357 140.335 20.2106 139.984 20.5679L138.314 22.267C137.99 22.5961 137.465 22.6179 137.118 22.3131C135.863 21.2094 134.472 20.4846 132.452 20.4846C129.071 20.4846 126.611 23.2376 126.611 26.641C126.611 30.0457 129.109 32.7974 132.683 32.7974C134.593 32.7974 136.066 32.0535 137.379 30.9254C137.714 30.6386 138.213 30.654 138.536 30.9536L140.088 32.3966C140.455 32.7385 140.463 33.3224 140.097 33.6668C138.234 35.4159 135.985 36.6004 132.451 36.6004C126.419 36.6004 121.962 32.1457 121.962 26.641Z" fill="#FFBD00"/>
<path d="M145.019 9.72629H149.669V25.5168L157.83 17.3001C157.993 17.135 158.216 17.0428 158.449 17.0428H161.572C162.357 17.0428 162.744 17.9993 162.178 18.5447L156.214 24.3004C155.899 24.6038 155.858 25.0942 156.116 25.4464L162.979 34.777C163.403 35.3532 162.992 36.1676 162.277 36.1676H159.063C158.786 36.1676 158.525 36.0357 158.361 35.8142L153.108 28.7166C152.794 28.2902 152.174 28.2416 151.795 28.6129L149.929 30.4427C149.761 30.6066 149.668 30.8319 149.668 31.0662V35.2956C149.668 35.7783 149.277 36.1688 148.795 36.1688H145.891C145.408 36.1688 145.017 35.7783 145.017 35.2956V9.72629H145.019Z" fill="#FFBD00"/>
<path d="M186.185 10.2833C182.294 10.2833 178.737 11.6905 176.169 14.245C173.694 16.706 172.332 19.9904 172.332 23.4886C172.332 31.0176 178.254 36.6938 186.108 36.6938C190 36.6938 193.555 35.2866 196.124 32.7321C198.599 30.2711 199.961 26.9868 199.961 23.4886C199.961 15.9608 194.039 10.2833 186.185 10.2833ZM186.185 33.8615C180.291 33.8615 175.674 29.3056 175.674 23.4898C175.674 17.5767 180.159 13.1182 186.108 13.1182C192.002 13.1182 196.619 17.674 196.619 23.4898C196.619 29.403 192.134 33.8615 186.185 33.8615Z" fill="#797979"/>
<path d="M215.544 16.948C212.669 16.948 210.414 18.1043 208.837 20.3873V18.3143C208.837 17.7803 208.403 17.3462 207.869 17.3462H206.657C206.123 17.3462 205.689 17.7803 205.689 18.3143V35.293C205.689 35.827 206.123 36.261 206.657 36.261H207.869C208.403 36.261 208.837 35.827 208.837 35.293V25.4464C208.837 22.0481 211.247 19.6741 214.699 19.6741C218.081 19.6741 220.099 21.751 220.099 25.2287V35.293C220.099 35.827 220.533 36.261 221.067 36.261H222.28C222.814 36.261 223.248 35.827 223.248 35.293V24.5398C223.249 19.8572 220.297 16.948 215.544 16.948Z" fill="#797979"/>
<path d="M229.629 35.293C229.629 35.827 230.063 36.261 230.597 36.261H231.81C232.344 36.261 232.778 35.827 232.778 35.293V9.63153H229.628V35.293H229.629Z" fill="#797979"/>
<path d="M242.148 10.1757H240.513C239.979 10.1757 239.545 10.6098 239.545 11.1437V12.4754C239.545 13.0094 239.979 13.4434 240.513 13.4434H242.148C242.682 13.4434 243.116 13.0094 243.116 12.4754V11.1437C243.116 10.6098 242.681 10.1757 242.148 10.1757Z" fill="#797979"/>
<path d="M239.736 35.293C239.736 35.827 240.17 36.261 240.704 36.261H241.917C242.451 36.261 242.885 35.827 242.885 35.293V17.3463H239.735V35.293H239.736Z" fill="#797979"/>
<path d="M259.431 16.948C256.555 16.948 254.3 18.1043 252.724 20.3873V17.3462H249.574V36.261H252.724V25.4451C252.724 22.0468 255.133 19.6728 258.585 19.6728C261.967 19.6728 263.986 21.7497 263.986 25.2274V36.261H267.136V24.5398C267.134 19.9276 264.111 16.948 259.431 16.948Z" fill="#797979"/>
<path d="M281.642 16.948C276.154 16.948 272.017 21.1927 272.017 26.8216C272.017 32.4504 276.321 36.6951 282.028 36.6951C285.059 36.6951 287.454 35.7924 289.57 33.8538C289.777 33.6643 289.892 33.3941 289.886 33.115C289.881 32.8371 289.755 32.5746 289.543 32.3954L289.019 31.9536C288.652 31.6437 288.122 31.6489 287.758 31.9664C286.1 33.4069 284.303 34.0779 282.105 34.0779C278.801 34.0779 276.166 32.0868 275.394 29.0047C275.335 28.7717 275.388 28.5297 275.535 28.3402C275.683 28.1494 275.907 28.0393 276.149 28.0393H290.032C290.565 28.0393 290.999 27.6065 291 27.0738V26.9663C290.999 20.9738 287.239 16.948 281.642 16.948ZM275.216 25.6039C275.681 21.9994 278.279 19.4923 281.564 19.4923C285.657 19.4923 287.463 22.6294 287.799 25.6039H275.216Z" fill="#797979"/>
<path d="M29.0663 52.4331V18.144C29.2276 17.6907 29.1495 17.1619 28.8525 16.7163C28.5439 16.2527 28.0586 15.9723 27.5541 15.9672C27.1648 15.9672 26.7756 16.1119 26.4836 16.3641L25.8178 16.8481V20.8892V49.7224L23.4925 48.036C22.8907 47.6007 22.0187 47.6442 21.463 48.1372L18.5385 50.7352L15.6139 48.1372C15.0172 47.6032 14.0454 47.6032 13.4499 48.1359L10.5254 50.7339L7.60086 48.1359C7.27434 47.8452 6.83643 47.6967 6.3998 47.73C6.10017 47.7531 5.81463 47.8581 5.57135 48.0348L3.24605 49.7211V22.9469H3.21532V19.24L2.5751 18.7739C2.26907 18.5447 1.89134 18.4308 1.50464 18.4525C0.678751 18.5153 -0.0101308 19.2656 0.000112789 20.0902V52.4702C0.00139324 53.323 0.417539 54.0772 1.05776 54.3922C1.55714 54.638 2.11157 54.5727 2.57125 54.218L6.41772 51.419L9.44342 54.1156C10.0401 54.6496 11.012 54.6496 11.6074 54.1169L14.5319 51.5189L17.4565 54.1169C18.0532 54.6508 19.025 54.6508 19.6204 54.1169L22.6461 51.419L26.4836 54.2116C26.7794 54.4626 27.1623 54.5907 27.5439 54.5907C27.8716 54.5907 28.1994 54.4959 28.4709 54.3038C29.0509 53.8941 29.3006 53.0976 29.0663 52.4331Z" fill="#FFBD00"/>
<path d="M0.201141 15.4781C0.470035 15.6983 1.0616 15.8263 1.68134 15.8263C1.94127 15.8263 2.20632 15.8033 2.45473 15.7559L3.2166 15.6176V6.60712L3.0399 6.53285C3.00788 6.52005 2.26138 6.21274 1.49696 6.21274C0.8849 6.21274 0.349673 6.43938 0.137118 6.66346C0.021878 6.7851 -0.00117004 6.90034 0.000110406 6.97973V15.0952C0.00139085 15.1951 0.035963 15.3436 0.201141 15.4781Z" fill="#FFBD00"/>
<path d="M13.3347 18.1632C13.3027 18.8981 13.9186 19.4231 14.8674 19.4718C14.9109 19.4743 14.9532 19.4756 14.9967 19.4756C15.7586 19.4756 16.5102 19.1325 16.5499 18.441V10.8262L16.4462 10.7404C16.4167 10.7161 15.7304 10.1527 14.9199 10.1527C14.304 10.1527 13.7368 10.5176 13.505 10.7635C13.3859 10.8902 13.3321 11.0042 13.3347 11.1207C13.3347 12.0862 13.3488 12.898 13.3629 13.6829C13.3898 15.1349 13.4115 16.391 13.3347 18.1632Z" fill="#FFBD00"/>
<path d="M14.2861 44.2869H23.0571L23.134 44.2293C23.2082 44.1742 23.8549 43.6672 23.8549 43.0205C23.8549 42.6159 23.5783 42.2894 23.4131 42.1306C23.3273 42.0474 23.0264 41.7759 22.7819 41.7875C21.6589 41.7875 20.7152 41.7977 19.8022 41.8079C18.1082 41.8271 16.6459 41.8438 14.5806 41.7875C13.5946 41.7606 13.1298 42.4149 13.1106 43.0346C13.0927 43.6198 13.4948 44.2574 14.2861 44.2869Z" fill="#797979"/>
<path d="M17.2119 40.4724H23.2812L23.367 40.3777C23.3875 40.3559 23.8562 39.8322 23.8562 39.2061C23.8562 38.7835 23.6154 38.3661 23.3773 38.1407C23.2531 38.0229 23.1404 37.9692 23.0277 37.9717C22.2607 37.9717 21.6167 37.982 20.9931 37.9922C19.8381 38.0114 18.8419 38.0281 17.436 37.9717C16.8239 37.9474 16.3694 38.4429 16.3361 39.1766C16.3053 39.7964 16.5973 40.4404 17.2119 40.4724Z" fill="#797979"/>
<path d="M9.83268 7.70831C9.84164 7.70959 10.1656 7.74544 10.5651 7.74544C11.1925 7.74544 12.0056 7.65709 12.0722 7.21022L12.076 4.07568L11.8763 4.01165C11.8494 4.00269 11.1976 3.79654 10.446 3.79654C9.88518 3.79654 9.10282 3.94891 8.9338 4.14738C8.88387 4.205 8.85826 4.27799 8.85954 4.35097C8.85954 4.72871 8.8749 5.0437 8.88899 5.34844C8.9146 5.90032 8.93637 6.37536 8.8621 7.0412C8.82241 7.39332 9.14892 7.61868 9.83268 7.70831Z" fill="#FFBD00"/>
<path d="M7.5061 23.3708C7.51378 23.372 7.83902 23.4079 8.23852 23.4079C8.86594 23.4079 9.67902 23.3195 9.74689 22.8727L9.75073 19.7381L9.55098 19.6741C9.52409 19.6651 8.87234 19.459 8.12071 19.459C7.55988 19.459 6.77752 19.6114 6.6085 19.8098C6.55857 19.8674 6.53296 19.9404 6.53424 20.0134C6.53424 20.3912 6.5496 20.7061 6.56369 21.0109C6.5893 21.5628 6.61107 22.0378 6.5368 22.7036C6.49582 23.0558 6.82234 23.2798 7.5061 23.3708Z" fill="#FFBD00"/>
<path d="M19.1403 9.40875C19.1479 9.41003 19.4732 9.44588 19.8727 9.44588C20.5001 9.44588 21.3132 9.35753 21.381 8.91066L21.3836 5.77612L21.1839 5.71209C21.157 5.70313 20.5052 5.49698 19.7536 5.49698C19.194 5.49698 18.4117 5.64935 18.2427 5.84654C18.1927 5.90416 18.1671 5.97715 18.1684 6.05013C18.1684 6.42658 18.1838 6.74286 18.1979 7.0476C18.2235 7.59948 18.2452 8.0758 18.171 8.74036C18.13 9.09376 18.4565 9.31912 19.1403 9.40875Z" fill="#FFBD00"/>
<path d="M26.6437 3.91305C26.6514 3.91433 26.9766 3.95018 27.3761 3.95018C28.0035 3.95018 28.8166 3.86183 28.8845 3.41496L28.8883 0.280418L28.6886 0.216396C28.6604 0.206152 28.0087 0 27.257 0C26.6962 0 25.9138 0.152373 25.7448 0.350843C25.6949 0.408463 25.6693 0.481449 25.6706 0.554434C25.6706 0.932167 25.6859 1.24716 25.7 1.5519C25.7256 2.10378 25.7474 2.57882 25.6731 3.24466C25.6334 3.59806 25.9599 3.82214 26.6437 3.91305Z" fill="#FFBD00"/>
<path d="M26.9292 14.3871C27.0099 14.3923 27.0918 14.3961 27.1725 14.3961C27.9433 14.3961 28.677 14.1336 28.7219 13.5843L28.7231 8.05275L28.5823 7.96952C28.5541 7.95288 27.878 7.55594 27.0918 7.55594C26.4478 7.55594 25.8076 7.86325 25.6129 8.07708C25.5246 8.17312 25.5054 8.26659 25.5066 8.33317C25.5066 9.02589 25.5207 9.60722 25.5348 10.1706C25.5604 11.2091 25.5835 12.1054 25.5066 13.3679C25.4721 13.9313 26.0175 14.3231 26.9292 14.3871Z" fill="#FFBD00"/>
<path d="M47.0361 44.0154H47.9785L49.2487 47.3228C49.5279 48.0783 49.7007 48.6238 49.7673 48.958H49.8096C49.8557 48.7774 49.9517 48.4701 50.0977 48.0348C50.2437 47.5994 50.7225 46.2588 51.5343 44.0154H52.4768L49.9837 50.6213C49.7366 51.2743 49.4485 51.7365 49.1181 52.0106C48.7878 52.2846 48.3832 52.4203 47.903 52.4203C47.6354 52.4203 47.3703 52.3909 47.1091 52.3307V51.6264C47.3037 51.6687 47.5201 51.6905 47.7596 51.6905C48.3627 51.6905 48.7929 51.3511 49.0516 50.6738L49.3742 49.8479L47.0361 44.0154Z" fill="#B3B3B3"/>
<path d="M57.0083 44.0154V46.4445H60.258V44.0154H61.1364V49.8159H60.258V47.2012H57.0083V49.8159H56.1299V44.0154H57.0083Z" fill="#B3B3B3"/>
<path d="M65.6359 42.443C65.6359 42.242 65.6859 42.0948 65.7845 42.0013C65.883 41.9078 66.0073 41.8604 66.1545 41.8604C66.2954 41.8604 66.417 41.9078 66.5194 42.0039C66.6219 42.0986 66.6731 42.2459 66.6731 42.443C66.6731 42.6402 66.6219 42.7875 66.5194 42.8848C66.417 42.9821 66.2954 43.0308 66.1545 43.0308C66.006 43.0308 65.883 42.9821 65.7845 42.8848C65.6859 42.7875 65.6359 42.6415 65.6359 42.443ZM66.5886 49.8172H65.7102V44.0167H66.5886V49.8172Z" fill="#B3B3B3"/>
<path d="M75.8667 45.4713C75.8667 45.849 75.7579 46.1358 75.5415 46.3317C75.3238 46.5277 75.0203 46.6595 74.6285 46.7261V46.7735C75.1228 46.8401 75.4839 46.9848 75.7105 47.2076C75.9371 47.4304 76.0524 47.7364 76.0524 48.1282C76.0524 48.6686 75.8539 49.0847 75.457 49.3779C75.06 49.6712 74.48 49.8171 73.7181 49.8171H71.1623V44.0167H73.7079C75.1471 44.0154 75.8667 44.5007 75.8667 45.4713ZM75.0088 45.5558C75.0088 45.2728 74.9 45.0731 74.6836 44.9553C74.4672 44.8375 74.1381 44.7786 73.6964 44.7786H72.0395V46.4137H73.5273C74.0702 46.4137 74.4531 46.3471 74.6759 46.2127C74.8974 46.0782 75.0088 45.8593 75.0088 45.5558ZM75.1727 48.0706C75.1727 47.7569 75.0536 47.5277 74.8155 47.3856C74.5773 47.2421 74.1829 47.1717 73.6323 47.1717H72.0395V49.0822H73.6541C74.6669 49.0809 75.1727 48.7441 75.1727 48.0706Z" fill="#B3B3B3"/>
<path d="M82.4879 49.9221C81.63 49.9221 80.9539 49.6609 80.4584 49.1385C79.9629 48.6161 79.7145 47.8913 79.7145 46.963C79.7145 46.0283 79.9449 45.2856 80.4046 44.735C80.8656 44.1844 81.4828 43.9091 82.26 43.9091C82.9873 43.9091 83.5622 44.1486 83.986 44.6262C84.4099 45.1038 84.6211 45.7351 84.6211 46.5187V47.0744H80.6249C80.6428 47.7556 80.8144 48.2729 81.1409 48.625C81.4674 48.9784 81.9271 49.1539 82.5199 49.1539C83.1448 49.1539 83.762 49.0233 84.3727 48.762V49.5457C84.0616 49.6801 83.7684 49.7762 83.4918 49.8338C83.2139 49.894 82.8797 49.9221 82.4879 49.9221ZM82.2497 44.6454C81.7837 44.6454 81.4123 44.7978 81.1358 45.1C80.8592 45.4034 80.6953 45.8234 80.6466 46.3599H83.68C83.68 45.8055 83.5571 45.3817 83.31 45.0872C83.0616 44.7927 82.7081 44.6454 82.2497 44.6454Z" fill="#B3B3B3"/>
<path d="M91.5279 49.9221C91.1502 49.9221 90.8057 49.853 90.4933 49.7134C90.1809 49.5739 89.9184 49.36 89.7071 49.0706H89.6431C89.6853 49.41 89.7071 49.7301 89.7071 50.0335V52.4203H88.8287V44.0154H89.5432L89.6648 44.8093H89.7071C89.9325 44.4918 90.1962 44.2626 90.4958 44.1217C90.7955 43.9809 91.1399 43.9104 91.5279 43.9104C92.2974 43.9104 92.8903 44.1729 93.309 44.6992C93.7277 45.2255 93.9364 45.963 93.9364 46.9118C93.9364 47.8645 93.7239 48.6046 93.2987 49.1321C92.8736 49.6584 92.2834 49.9221 91.5279 49.9221ZM91.4011 44.6557C90.8083 44.6557 90.3793 44.8196 90.1156 45.1473C89.8505 45.4751 89.7148 45.9976 89.7084 46.7146V46.9105C89.7084 47.7262 89.8441 48.3088 90.1156 48.6596C90.387 49.0105 90.8224 49.1859 91.4229 49.1859C91.9235 49.1859 92.3166 48.9836 92.6009 48.5777C92.8852 48.1718 93.0273 47.6122 93.0273 46.9003C93.0273 46.1768 92.8852 45.6224 92.6009 45.2357C92.3154 44.849 91.9159 44.6557 91.4011 44.6557Z" fill="#B3B3B3"/>
<path d="M100.5 49.9221C99.66 49.9221 99.0095 49.6635 98.5499 49.1462C98.0889 48.6289 97.8597 47.8977 97.8597 46.9528C97.8597 45.9822 98.094 45.2331 98.5614 44.703C99.0287 44.1729 99.6946 43.9091 100.559 43.9091C100.838 43.9091 101.116 43.9399 101.395 43.9988C101.674 44.059 101.893 44.1294 102.052 44.2101L101.782 44.9566C101.587 44.8784 101.376 44.8144 101.147 44.7632C100.917 44.712 100.714 44.6864 100.538 44.6864C99.3604 44.6864 98.7701 45.438 98.7701 46.9413C98.7701 47.6545 98.9135 48.2012 99.2016 48.5815C99.4897 48.9631 99.9148 49.1526 100.479 49.1526C100.963 49.1526 101.459 49.0489 101.967 48.8402V49.6187C101.578 49.8223 101.089 49.9221 100.5 49.9221Z" fill="#B3B3B3"/>
<path d="M109.619 49.8172L109.445 48.9913H109.403C109.114 49.3549 108.825 49.6008 108.537 49.7301C108.249 49.8581 107.891 49.9234 107.461 49.9234C106.886 49.9234 106.435 49.7749 106.108 49.4791C105.782 49.1833 105.619 48.7608 105.619 48.214C105.619 47.0424 106.557 46.4291 108.43 46.3727L109.414 46.3407V45.9809C109.414 45.5264 109.317 45.1896 109.121 44.9719C108.925 44.7555 108.612 44.6467 108.181 44.6467C107.697 44.6467 107.151 44.7952 106.541 45.091L106.271 44.4188C106.557 44.2638 106.87 44.1422 107.211 44.0539C107.551 43.9655 107.893 43.922 108.235 43.922C108.927 43.922 109.439 44.0756 109.773 44.3829C110.106 44.6902 110.274 45.1819 110.274 45.8593V49.8184H109.619V49.8172ZM107.635 49.1974C108.181 49.1974 108.612 49.0476 108.924 48.748C109.236 48.4484 109.393 48.0284 109.393 47.488V46.9643L108.514 47.0014C107.815 47.0258 107.312 47.1346 107.003 47.3267C106.695 47.5187 106.54 47.8184 106.54 48.2243C106.54 48.5418 106.636 48.7838 106.828 48.949C107.02 49.1142 107.289 49.1974 107.635 49.1974Z" fill="#B3B3B3"/>
<path d="M119.115 49.8171H118.227V44.7683H116.485C116.39 46.0244 116.257 47.0219 116.088 47.7582C115.919 48.4957 115.699 49.0361 115.429 49.3779C115.159 49.7198 114.815 49.8914 114.399 49.8914C114.208 49.8914 114.057 49.8696 113.943 49.8274V49.1769C114.022 49.1987 114.109 49.2089 114.208 49.2089C114.614 49.2089 114.937 48.78 115.177 47.9233C115.416 47.0654 115.598 45.7632 115.722 44.0167H119.115V49.8171Z" fill="#B3B3B3"/>
<path d="M124.566 46.4137H126.355C127.836 46.4137 128.578 46.9592 128.578 48.0489C128.578 48.6199 128.384 49.0578 127.998 49.3613C127.611 49.6648 127.046 49.8159 126.301 49.8159H123.686V44.0154H124.565V46.4137H124.566ZM124.566 47.1705V49.0809H126.26C126.726 49.0809 127.082 49.0002 127.329 48.8376C127.576 48.675 127.699 48.4304 127.699 48.1014C127.699 47.78 127.585 47.5444 127.357 47.3945C127.129 47.2447 126.754 47.1692 126.233 47.1692H124.566V47.1705Z" fill="#B3B3B3"/>
<path d="M133.692 44.0154V46.4445H136.942V44.0154H137.82V49.8159H136.942V47.2012H133.692V49.8159H132.813V44.0154H133.692Z" fill="#B3B3B3"/>
<path d="M143.218 44.0154V47.6942L143.181 48.6571L143.166 48.9593L146.304 44.0154H147.4V49.8159H146.58V46.269L146.595 45.5699L146.622 44.8823L143.488 49.8159H142.392V44.0154H143.218Z" fill="#B3B3B3"/>
<path d="M152.799 44.0154V47.6941L152.762 48.657L152.746 48.9592L155.885 44.0154H156.981V49.8158H156.16V46.269L156.175 45.5699L156.202 44.8823L153.069 49.8158H151.973V44.0154H152.799ZM154.456 43.2484C153.803 43.2484 153.326 43.1229 153.027 42.8694C152.727 42.6172 152.559 42.2023 152.523 41.6235H153.349C153.381 41.991 153.477 42.2458 153.637 42.3905C153.797 42.5352 154.078 42.6082 154.476 42.6082C154.84 42.6082 155.109 42.5301 155.283 42.3752C155.457 42.2202 155.564 41.9693 155.603 41.6235H156.434C156.392 42.1805 156.214 42.5916 155.9 42.854C155.586 43.1165 155.105 43.2484 154.456 43.2484Z" fill="#B3B3B3"/>
<path d="M167.958 49.8171H167.079V44.0167H171.949V49.8171H171.06V44.7773H167.959V49.8171H167.958Z" fill="#B3B3B3"/>
<path d="M179.221 49.9221C178.843 49.9221 178.499 49.853 178.186 49.7134C177.874 49.5739 177.611 49.36 177.4 49.0706H177.336C177.378 49.41 177.4 49.7301 177.4 50.0335V52.4203H176.522V44.0154H177.236L177.358 44.8093H177.4C177.625 44.4918 177.889 44.2626 178.189 44.1217C178.488 43.9809 178.833 43.9104 179.221 43.9104C179.99 43.9104 180.583 44.1729 181.002 44.6992C181.421 45.2255 181.629 45.963 181.629 46.9118C181.629 47.8645 181.417 48.6046 180.992 49.1321C180.566 49.6584 179.976 49.9221 179.221 49.9221ZM179.094 44.6557C178.501 44.6557 178.072 44.8196 177.808 45.1473C177.543 45.4751 177.408 45.9976 177.401 46.7146V46.9105C177.401 47.7262 177.537 48.3088 177.808 48.6596C178.08 49.0105 178.515 49.1859 179.116 49.1859C179.616 49.1859 180.009 48.9836 180.294 48.5777C180.578 48.1718 180.72 47.6122 180.72 46.9003C180.72 46.1768 180.578 45.6224 180.294 45.2357C180.009 44.849 179.61 44.6557 179.094 44.6557Z" fill="#B3B3B3"/>
<path d="M190.882 46.9105C190.882 47.8568 190.644 48.5943 190.167 49.1257C189.691 49.6571 189.033 49.9221 188.193 49.9221C187.674 49.9221 187.213 49.8005 186.811 49.5572C186.409 49.3139 186.098 48.9644 185.879 48.5098C185.66 48.0552 185.551 47.5213 185.551 46.9118C185.551 45.9656 185.788 45.2293 186.261 44.7017C186.733 44.1742 187.39 43.9104 188.23 43.9104C189.042 43.9104 189.686 44.1806 190.165 44.721C190.642 45.26 190.882 45.9899 190.882 46.9105ZM186.462 46.9105C186.462 47.6519 186.61 48.2166 186.906 48.6046C187.202 48.9925 187.638 49.1872 188.213 49.1872C188.788 49.1872 189.225 48.9938 189.523 48.6071C189.822 48.2204 189.97 47.6557 189.97 46.9105C189.97 46.173 189.822 45.6134 189.523 45.2293C189.225 44.8464 188.784 44.6557 188.203 44.6557C187.628 44.6557 187.194 44.8439 186.901 45.2216C186.609 45.6006 186.462 46.1627 186.462 46.9105Z" fill="#B3B3B3"/>
<path d="M198.625 44.7671H196.01V49.8159H195.132V44.0154H198.625V44.7671Z" fill="#B3B3B3"/>
<path d="M205.183 49.9221C204.805 49.9221 204.461 49.853 204.148 49.7134C203.836 49.5739 203.574 49.36 203.362 49.0706H203.298C203.341 49.41 203.362 49.7301 203.362 50.0335V52.4203H202.484V44.0154H203.198L203.32 44.8093H203.362C203.588 44.4918 203.851 44.2626 204.151 44.1217C204.451 43.9809 204.795 43.9104 205.183 43.9104C205.953 43.9104 206.545 44.1729 206.964 44.6992C207.383 45.2255 207.592 45.963 207.592 46.9118C207.592 47.8645 207.379 48.6046 206.954 49.1321C206.529 49.6584 205.939 49.9221 205.183 49.9221ZM205.056 44.6557C204.463 44.6557 204.035 44.8196 203.771 45.1473C203.506 45.4751 203.37 45.9976 203.364 46.7146V46.9105C203.364 47.7262 203.499 48.3088 203.771 48.6596C204.042 49.0105 204.478 49.1859 205.078 49.1859C205.579 49.1859 205.972 48.9836 206.256 48.5777C206.54 48.1718 206.682 47.6122 206.682 46.9003C206.682 46.1768 206.54 45.6224 206.256 45.2357C205.971 44.849 205.571 44.6557 205.056 44.6557Z" fill="#B3B3B3"/>
<path d="M215.404 49.8172L215.23 48.9913H215.187C214.898 49.3549 214.61 49.6008 214.322 49.7301C214.034 49.8581 213.675 49.9234 213.245 49.9234C212.67 49.9234 212.219 49.7749 211.893 49.4791C211.566 49.1833 211.404 48.7608 211.404 48.214C211.404 47.0424 212.341 46.4291 214.214 46.3727L215.199 46.3407V45.9809C215.199 45.5264 215.101 45.1896 214.906 44.9719C214.71 44.7555 214.396 44.6467 213.966 44.6467C213.482 44.6467 212.935 44.7952 212.325 45.091L212.055 44.4188C212.341 44.2638 212.655 44.1422 212.995 44.0539C213.336 43.9655 213.678 43.922 214.019 43.922C214.711 43.922 215.223 44.0756 215.557 44.3829C215.89 44.6902 216.058 45.1819 216.058 45.8593V49.8184H215.404V49.8172ZM213.419 49.1974C213.966 49.1974 214.396 49.0476 214.708 48.748C215.021 48.4484 215.177 48.0284 215.177 47.488V46.9643L214.299 47.0014C213.599 47.0258 213.096 47.1346 212.788 47.3267C212.479 47.5187 212.324 47.8184 212.324 48.2243C212.324 48.5418 212.42 48.7838 212.612 48.949C212.804 49.1142 213.073 49.1974 213.419 49.1974Z" fill="#B3B3B3"/>
<path d="M223.587 48.9695L223.751 48.4778L223.979 47.8529L225.551 44.0257H226.668V49.8159H225.889V45.0257L225.783 45.333L225.476 46.1422L223.978 49.8159H223.241L221.743 46.132C221.556 45.6595 221.427 45.2908 221.356 45.0257V49.8159H220.573V44.0257H221.647L223.166 47.7044C223.321 48.0924 223.459 48.5149 223.587 48.9695Z" fill="#B3B3B3"/>
<path d="M232.129 44.0154V46.4445H235.379V44.0154H236.257V49.8159H235.379V47.2012H232.129V49.8159H231.25V44.0154H232.129Z" fill="#B3B3B3"/>
<path d="M241.657 44.0154V47.6942L241.62 48.6571L241.604 48.9593L244.743 44.0154H245.839V49.8159H245.018V46.269L245.033 45.5699L245.06 44.8823L241.927 49.8159H240.831V44.0154H241.657Z" fill="#B3B3B3"/>
<path d="M251.237 44.0154V47.6941L251.2 48.657L251.184 48.9592L254.323 44.0154H255.419V49.8158H254.598V46.269L254.614 45.5699L254.64 44.8823L251.507 49.8158H250.411V44.0154H251.237ZM252.894 43.2484C252.241 43.2484 251.765 43.1229 251.465 42.8694C251.165 42.6172 250.998 42.2023 250.962 41.6235H251.788C251.82 41.991 251.916 42.2458 252.076 42.3905C252.236 42.5352 252.516 42.6082 252.914 42.6082C253.278 42.6082 253.547 42.5301 253.721 42.3752C253.895 42.2202 254.003 41.9693 254.041 41.6235H254.872C254.83 42.1805 254.652 42.5916 254.338 42.854C254.025 43.1165 253.543 43.2484 252.894 43.2484Z" fill="#B3B3B3"/>
<path d="M270.556 44.333C270.556 45.1166 270.289 45.7184 269.755 46.141C269.221 46.5635 268.455 46.7735 267.46 46.7735H266.55V49.8172H265.65V42.0794H267.656C269.588 42.0781 270.556 42.8298 270.556 44.333ZM266.549 46.0001H267.358C268.156 46.0001 268.732 45.8708 269.089 45.6134C269.445 45.3561 269.623 44.9425 269.623 44.3753C269.623 43.8631 269.455 43.4828 269.12 43.2318C268.784 42.9808 268.262 42.8566 267.552 42.8566H266.547V46.0001H266.549Z" fill="#B3B3B3"/>
<path d="M279.792 44.333C279.792 45.1166 279.525 45.7184 278.991 46.141C278.457 46.5635 277.691 46.7735 276.696 46.7735H275.786V49.8172H274.886V42.0794H276.892C278.826 42.0781 279.792 42.8298 279.792 44.333ZM275.786 46.0001H276.595C277.393 46.0001 277.969 45.8708 278.326 45.6134C278.682 45.3561 278.86 44.9425 278.86 44.3753C278.86 43.8631 278.692 43.4828 278.357 43.2318C278.021 42.9808 277.499 42.8566 276.79 42.8566H275.784V46.0001H275.786Z" fill="#B3B3B3"/>
<path d="M290.839 45.9374C290.839 47.1756 290.525 48.15 289.899 48.8594C289.273 49.5687 288.402 49.9234 287.287 49.9234C286.147 49.9234 285.267 49.5751 284.648 48.8786C284.028 48.182 283.719 47.1973 283.719 45.9284C283.719 44.6684 284.029 43.6927 284.652 42.9987C285.273 42.3047 286.155 41.959 287.298 41.959C288.41 41.959 289.278 42.3124 289.903 43.0179C290.526 43.7209 290.839 44.6953 290.839 45.9374ZM284.672 45.9374C284.672 46.9848 284.895 47.7799 285.342 48.3216C285.789 48.8632 286.437 49.1347 287.287 49.1347C288.145 49.1347 288.791 48.8645 289.229 48.3241C289.667 47.7838 289.886 46.9886 289.886 45.9374C289.886 44.8964 289.668 44.1076 289.232 43.5685C288.796 43.0308 288.151 42.7619 287.297 42.7619C286.439 42.7619 285.787 43.0333 285.342 43.5749C284.895 44.1153 284.672 44.9028 284.672 45.9374Z" fill="#B3B3B3"/>
</svg>
