<svg width="22" height="15" viewBox="0 0 22 15" fill="none" xmlns="http://www.w3.org/2000/svg">
<path d="M21.9677 1.94268C21.9677 0.89172 21.0954 0 19.9971 0H1.97063C0.904552 0 0 0.859872 0 1.94268V13.0573C0 14.1083 0.872247 15 1.97063 15H10.6608C11.0162 15 11.3069 14.7134 11.3069 14.3631C11.3069 14.0127 11.0162 13.7261 10.6608 13.7261H1.97063C1.61527 13.6943 1.29222 13.4076 1.29222 13.0255V3.9172C1.29222 3.3758 1.90602 3.05732 2.3583 3.40764L9.82085 8.9172C10.1762 9.17197 10.5639 9.29936 10.9838 9.29936C11.4038 9.29936 11.8238 9.17197 12.1468 8.9172L19.6094 3.40764C20.0617 3.08917 20.6755 3.40764 20.6755 3.9172V13.0255C20.6755 13.3758 20.3847 13.6943 19.9971 13.6943H18.511C18.1557 13.6943 17.8649 13.9809 17.8649 14.3312C17.8649 14.6815 18.1557 14.9682 18.511 14.9682H20.0294C21.0954 14.9682 22 14.1083 22 13.0255L21.9677 1.94268ZM11.3715 7.86624C11.1454 8.02548 10.8223 8.02548 10.5639 7.86624L1.71219 1.30573C1.7768 1.30573 1.87372 1.27389 1.97063 1.27389H20.0294C20.1263 1.27389 20.1909 1.30573 20.2878 1.30573L11.3715 7.86624ZM16.0235 15H13.3421C12.9868 15 12.696 14.7134 12.696 14.3631C12.696 14.0127 12.9868 13.7261 13.3421 13.7261H16.0235C16.3789 13.7261 16.6696 14.0127 16.6696 14.3631C16.6696 14.7134 16.3789 15 16.0235 15Z" fill="white"/>
</svg>
