<svg width="10" height="17" viewBox="0 0 10 17" fill="none" xmlns="http://www.w3.org/2000/svg">
<g clip-path="url(#clip0_116_653)">
<path d="M4.28571 14.7371C4.28571 14.2845 4.61153 13.9451 4.98747 13.9451C5.36341 13.9451 5.68922 14.3128 5.68922 14.7371C5.68922 15.1897 5.36341 15.5574 4.98747 15.5574C4.61153 15.5574 4.28571 15.1897 4.28571 14.7371ZM10 1.04659V4.53428C10 4.73794 9.88471 4.92745 9.71178 4.97554C9.45363 5.04909 9.22306 4.83128 9.22306 4.55125V2.85691H0.75188V12.8702H9.22306V10.7714C9.22306 10.4913 9.45363 10.2735 9.71178 10.3471C9.88471 10.3952 10 10.5875 10 10.7884V15.9534C10 16.5474 9.57393 17 9.07268 17H0.927318C0.401003 17 0 16.5191 0 15.9534V1.04659C0 0.452579 0.426065 0 0.927318 0H4.48872H4.63659H9.04762C9.57393 0 9.97494 0.452579 10 1.04659ZM0.75188 13.4359V15.9251C0.75188 16.0354 0.829574 16.1231 0.927318 16.1231H9.04762C9.14536 16.1231 9.22306 16.0354 9.22306 15.9251V13.4359H0.75188ZM9.24812 1.0183C9.24812 0.907987 9.17043 0.8203 9.07268 0.8203H4.63659H4.48872H0.927318C0.829574 0.8203 0.75188 0.907987 0.75188 1.0183V2.29118H9.22306H9.24812V1.0183ZM9.61153 5.96556C9.39599 5.96556 9.22306 6.16073 9.22306 6.40399V8.97521C9.22306 9.21847 9.39599 9.41364 9.61153 9.41364C9.82707 9.41364 10 9.21847 10 8.97521V6.40399C10 6.16073 9.82707 5.96556 9.61153 5.96556Z" fill="white"/>
</g>
<defs>
<clipPath id="clip0_116_653">
<rect width="10" height="17" fill="white"/>
</clipPath>
</defs>
</svg>
