<svg width="23" height="33" viewBox="0 0 23 33" fill="none" xmlns="http://www.w3.org/2000/svg">
<path fill-rule="evenodd" clip-rule="evenodd" d="M11.5 0C10.6716 0 10 0.589099 10 1.31579L10 3.68421C10 4.4109 10.6716 5 11.5 5C12.3284 5 13 4.4109 13 3.68421L13 1.31579C13 0.589099 12.3284 0 11.5 0ZM10 8.15385C10 7.51659 10.6716 7 11.5 7C12.3284 7 13 7.51659 13 8.15385L13 24.9629L19.0795 18.358C19.5188 17.8807 20.2312 17.8807 20.6705 18.358C21.1098 18.8353 21.1098 19.6092 20.6705 20.0865L12.7955 28.642C12.3562 29.1193 11.6438 29.1193 11.2045 28.642L3.3295 20.0865C2.89016 19.6092 2.89016 18.8353 3.3295 18.358C3.76884 17.8807 4.48115 17.8807 4.92049 18.358L10 23.8765L10 8.15385ZM21.8835 31C22.5001 31 23 31.4477 23 32C23 32.5523 22.5001 33 21.8835 33L1.1165 33C0.499876 33 -5.96046e-08 32.5523 0 32C5.96047e-08 31.4477 0.499876 31 1.1165 31L21.8835 31Z" fill="white"/>
</svg>
